<svg xmlns="http://www.w3.org/2000/svg" width="1280" height="832" viewBox="0 0 1280 832">
<rect width="1280" height="832" fill="#F4F3EF"/>
<rect x="0" y="0" width="1280" height="56" rx="0" fill="#EDEDE9"/>
<line x1="0" y1="56" x2="1280" y2="56" stroke="#9A9A9A" stroke-width="2"/>
<circle cx="34" cy="28" r="14" fill="#FFFFFF" stroke="#2B2B2B" stroke-width="2"/>
<text x="34" y="32" font-family="Arial" font-size="9" fill="#2B2B2B" font-weight="bold" text-anchor="middle">EPI</text>
<text x="58" y="33" font-family="Arial" font-size="14" fill="#2B2B2B" font-weight="bold" text-anchor="start">Gestão de EPIs — Construção Civil</text>
<rect x="1064" y="15" width="192" height="26" rx="13" fill="#FFFFFF" stroke="#9A9A9A" stroke-width="1"/>
<text x="1160" y="32" font-family="Arial" font-size="11" fill="#555555" text-anchor="middle">Técnico de Segurança ▾</text>
<rect x="0" y="56" width="200" height="776" rx="0" fill="#EFEFEA"/>
<line x1="200" y1="56" x2="200" y2="832" stroke="#9A9A9A" stroke-width="1.5"/>
<rect x="0" y="80" width="200" height="40" rx="0" fill="#E0DFD8"/>
<rect x="0" y="80" width="4" height="40" rx="0" fill="#2B2B2B"/>
<text x="20" y="105" font-family="Arial" font-size="13" fill="#2B2B2B" font-weight="bold" text-anchor="start">Dashboard</text>
<text x="20" y="149" font-family="Arial" font-size="13" fill="#2B2B2B" text-anchor="start">Colaboradores</text>
<text x="20" y="193" font-family="Arial" font-size="13" fill="#2B2B2B" text-anchor="start">EPIs</text>
<text x="20" y="237" font-family="Arial" font-size="13" fill="#2B2B2B" text-anchor="start">Empréstimos</text>
<text x="20" y="281" font-family="Arial" font-size="13" fill="#2B2B2B" text-anchor="start">Relatórios</text>
<text x="20" y="325" font-family="Arial" font-size="13" fill="#2B2B2B" text-anchor="start">Usuários</text>
<text x="224" y="96" font-family="Arial" font-size="18" fill="#2B2B2B" font-weight="bold" text-anchor="start">Visão geral</text>
<line x1="224" y1="108" x2="1256" y2="108" stroke="#D9D7D0" stroke-width="1"/>
<rect x="224.0" y="124" width="246.0" height="92" rx="8" fill="#FFFFFF" stroke="#9A9A9A" stroke-width="1.5"/>
<rect x="224.0" y="124" width="246.0" height="5" rx="2" fill="#2B2B2B"/>
<text x="240.0" y="172" font-family="Arial" font-size="28" fill="#2B2B2B" font-weight="bold" text-anchor="start">38</text>
<text x="240.0" y="196" font-family="Arial" font-size="11" fill="#666666" text-anchor="start">Empréstimos ativos</text>
<rect x="486.0" y="124" width="246.0" height="92" rx="8" fill="#FFFFFF" stroke="#9A9A9A" stroke-width="1.5"/>
<rect x="486.0" y="124" width="246.0" height="5" rx="2" fill="#B3261E"/>
<text x="502.0" y="172" font-family="Arial" font-size="28" fill="#2B2B2B" font-weight="bold" text-anchor="start">5</text>
<text x="502.0" y="196" font-family="Arial" font-size="11" fill="#666666" text-anchor="start">Devoluções atrasadas</text>
<rect x="748.0" y="124" width="246.0" height="92" rx="8" fill="#FFFFFF" stroke="#9A9A9A" stroke-width="1.5"/>
<rect x="748.0" y="124" width="246.0" height="5" rx="2" fill="#C79300"/>
<text x="764.0" y="172" font-family="Arial" font-size="28" fill="#2B2B2B" font-weight="bold" text-anchor="start">2</text>
<text x="764.0" y="196" font-family="Arial" font-size="11" fill="#666666" text-anchor="start">CAs vencidos ou a vencer</text>
<rect x="1010.0" y="124" width="246.0" height="92" rx="8" fill="#FFFFFF" stroke="#9A9A9A" stroke-width="1.5"/>
<rect x="1010.0" y="124" width="246.0" height="5" rx="2" fill="#C79300"/>
<text x="1026.0" y="172" font-family="Arial" font-size="28" fill="#2B2B2B" font-weight="bold" text-anchor="start">3</text>
<text x="1026.0" y="196" font-family="Arial" font-size="11" fill="#666666" text-anchor="start">EPIs no estoque mínimo</text>
<text x="224" y="252" font-family="Arial" font-size="14" fill="#2B2B2B" font-weight="bold" text-anchor="start">Alertas</text>
<rect x="224" y="264" width="1032" height="132" rx="4" fill="#FFFFFF" stroke="#9A9A9A" stroke-width="1.5"/>
<rect x="224" y="264" width="1032" height="30" rx="4" fill="#EDEDE9" stroke="#9A9A9A" stroke-width="1.5"/>
<text x="234" y="284" font-family="Arial" font-size="10" fill="#555555" font-weight="bold" text-anchor="start">EPI</text>
<text x="654" y="284" font-family="Arial" font-size="10" fill="#555555" font-weight="bold" text-anchor="start">SITUAÇÃO</text>
<text x="854" y="284" font-family="Arial" font-size="10" fill="#555555" font-weight="bold" text-anchor="start">DETALHE</text>
<line x1="224" y1="294" x2="1256" y2="294" stroke="#D9D7D0" stroke-width="1"/>
<text x="234" y="316" font-family="Arial" font-size="12" fill="#2B2B2B" text-anchor="start">Protetor auricular plug</text>
<rect x="654" y="302" width="80" height="18" rx="9" fill="#FFFFFF" stroke="#9A9A9A" stroke-width="1"/>
<text x="694.0" y="315" font-family="Arial" font-size="10" fill="#555555" text-anchor="middle">CA vencido</text>
<text x="854" y="316" font-family="Arial" font-size="12" fill="#2B2B2B" text-anchor="start">CA 67890 — validade 04/07/2026</text>
<line x1="224" y1="328" x2="1256" y2="328" stroke="#D9D7D0" stroke-width="1"/>
<text x="234" y="350" font-family="Arial" font-size="12" fill="#2B2B2B" text-anchor="start">Cinto tipo paraquedista</text>
<rect x="654" y="336" width="86" height="18" rx="9" fill="#FFFFFF" stroke="#9A9A9A" stroke-width="1"/>
<text x="697.0" y="349" font-family="Arial" font-size="10" fill="#555555" text-anchor="middle">CA a vencer</text>
<text x="854" y="350" font-family="Arial" font-size="12" fill="#2B2B2B" text-anchor="start">CA 34567 — validade 08/08/2026</text>
<line x1="224" y1="362" x2="1256" y2="362" stroke="#D9D7D0" stroke-width="1"/>
<text x="234" y="384" font-family="Arial" font-size="12" fill="#2B2B2B" text-anchor="start">Cinto tipo paraquedista</text>
<rect x="654" y="370" width="98" height="18" rx="9" fill="#FFFFFF" stroke="#9A9A9A" stroke-width="1"/>
<text x="703.0" y="383" font-family="Arial" font-size="10" fill="#555555" text-anchor="middle">Estoque baixo</text>
<text x="854" y="384" font-family="Arial" font-size="12" fill="#2B2B2B" text-anchor="start">6 em estoque (mínimo 5)</text>
<text x="224" y="424" font-family="Arial" font-size="14" fill="#2B2B2B" font-weight="bold" text-anchor="start">Últimos empréstimos</text>
<rect x="224" y="436" width="1032" height="98" rx="4" fill="#FFFFFF" stroke="#9A9A9A" stroke-width="1.5"/>
<rect x="224" y="436" width="1032" height="30" rx="4" fill="#EDEDE9" stroke="#9A9A9A" stroke-width="1.5"/>
<text x="234" y="456" font-family="Arial" font-size="10" fill="#555555" font-weight="bold" text-anchor="start">Nº</text>
<text x="294" y="456" font-family="Arial" font-size="10" fill="#555555" font-weight="bold" text-anchor="start">COLABORADOR</text>
<text x="594" y="456" font-family="Arial" font-size="10" fill="#555555" font-weight="bold" text-anchor="start">DATA</text>
<text x="774" y="456" font-family="Arial" font-size="10" fill="#555555" font-weight="bold" text-anchor="start">PREV. DEVOLUÇÃO</text>
<text x="954" y="456" font-family="Arial" font-size="10" fill="#555555" font-weight="bold" text-anchor="start">STATUS</text>
<text x="1104" y="456" font-family="Arial" font-size="10" fill="#555555" font-weight="bold" text-anchor="start">AÇÕES</text>
<line x1="224" y1="466" x2="1256" y2="466" stroke="#D9D7D0" stroke-width="1"/>
<text x="234" y="488" font-family="Arial" font-size="12" fill="#2B2B2B" text-anchor="start">2</text>
<text x="294" y="488" font-family="Arial" font-size="12" fill="#2B2B2B" text-anchor="start">José Pereira</text>
<text x="594" y="488" font-family="Arial" font-size="12" fill="#2B2B2B" text-anchor="start">11/07/2026 08:12</text>
<text x="774" y="488" font-family="Arial" font-size="12" fill="#2B2B2B" text-anchor="start">11/07/2026</text>
<rect x="954" y="474" width="68" height="18" rx="9" fill="#FFFFFF" stroke="#9A9A9A" stroke-width="1"/>
<text x="988.0" y="487" font-family="Arial" font-size="10" fill="#555555" text-anchor="middle">Atrasado</text>
<text x="1104" y="488" font-family="Arial" font-size="12" fill="#2B2B2B" text-anchor="start">Ficha</text>
<line x1="224" y1="500" x2="1256" y2="500" stroke="#D9D7D0" stroke-width="1"/>
<text x="234" y="522" font-family="Arial" font-size="12" fill="#2B2B2B" text-anchor="start">1</text>
<text x="294" y="522" font-family="Arial" font-size="12" fill="#2B2B2B" text-anchor="start">Carlos Andrade</text>
<text x="594" y="522" font-family="Arial" font-size="12" fill="#2B2B2B" text-anchor="start">10/07/2026 07:45</text>
<text x="774" y="522" font-family="Arial" font-size="12" fill="#2B2B2B" text-anchor="start">29/07/2026</text>
<rect x="954" y="508" width="50" height="18" rx="9" fill="#FFFFFF" stroke="#9A9A9A" stroke-width="1"/>
<text x="979.0" y="521" font-family="Arial" font-size="10" fill="#555555" text-anchor="middle">Ativo</text>
<text x="1104" y="522" font-family="Arial" font-size="12" fill="#2B2B2B" text-anchor="start">Ficha</text>
<text x="224" y="816" font-family="Arial" font-size="11" fill="#888888" font-style="italic" text-anchor="start">Tela 02 — Dashboard: indicadores e alertas visíveis após o login (visibilidade do status do sistema).</text>
</svg>