<svg xmlns="http://www.w3.org/2000/svg" width="1280" height="832" viewBox="0 0 1280 832">
<rect width="1280" height="832" fill="#F4F3EF"/>
<rect x="0" y="0" width="1280" height="56" rx="0" fill="#EDEDE9"/>
<line x1="0" y1="56" x2="1280" y2="56" stroke="#9A9A9A" stroke-width="2"/>
<circle cx="34" cy="28" r="14" fill="#FFFFFF" stroke="#2B2B2B" stroke-width="2"/>
<text x="34" y="32" font-family="Arial" font-size="9" fill="#2B2B2B" font-weight="bold" text-anchor="middle">EPI</text>
<text x="58" y="33" font-family="Arial" font-size="14" fill="#2B2B2B" font-weight="bold" text-anchor="start">Gestão de EPIs — Construção Civil</text>
<rect x="1064" y="15" width="192" height="26" rx="13" fill="#FFFFFF" stroke="#9A9A9A" stroke-width="1"/>
<text x="1160" y="32" font-family="Arial" font-size="11" fill="#555555" text-anchor="middle">Técnico de Segurança ▾</text>
<rect x="0" y="56" width="200" height="776" rx="0" fill="#EFEFEA"/>
<line x1="200" y1="56" x2="200" y2="832" stroke="#9A9A9A" stroke-width="1.5"/>
<text x="20" y="105" font-family="Arial" font-size="13" fill="#2B2B2B" text-anchor="start">Dashboard</text>
<rect x="0" y="124" width="200" height="40" rx="0" fill="#E0DFD8"/>
<rect x="0" y="124" width="4" height="40" rx="0" fill="#2B2B2B"/>
<text x="20" y="149" font-family="Arial" font-size="13" fill="#2B2B2B" font-weight="bold" text-anchor="start">Colaboradores</text>
<text x="20" y="193" font-family="Arial" font-size="13" fill="#2B2B2B" text-anchor="start">EPIs</text>
<text x="20" y="237" font-family="Arial" font-size="13" fill="#2B2B2B" text-anchor="start">Empréstimos</text>
<text x="20" y="281" font-family="Arial" font-size="13" fill="#2B2B2B" text-anchor="start">Relatórios</text>
<text x="20" y="325" font-family="Arial" font-size="13" fill="#2B2B2B" text-anchor="start">Usuários</text>
<text x="224" y="96" font-family="Arial" font-size="18" fill="#2B2B2B" font-weight="bold" text-anchor="start">Cadastro de colaborador</text>
<line x1="224" y1="108" x2="1256" y2="108" stroke="#D9D7D0" stroke-width="1"/>
<text x="224" y="134" font-family="Arial" font-size="12" fill="#2B2B2B" font-weight="bold" text-anchor="start">Matrícula *</text>
<rect x="224" y="140" width="180" height="34" rx="4" fill="#FFFFFF" stroke="#9A9A9A" stroke-width="1.5"/>
<text x="234" y="162" font-family="Arial" font-size="12" fill="#999999" text-anchor="start">Ex.: 001206</text>
<text x="420" y="134" font-family="Arial" font-size="12" fill="#2B2B2B" font-weight="bold" text-anchor="start">Nome completo *</text>
<rect x="420" y="140" width="520" height="34" rx="4" fill="#FFFFFF" stroke="#9A9A9A" stroke-width="1.5"/>
<text x="430" y="162" font-family="Arial" font-size="12" fill="#999999" text-anchor="start">Nome do colaborador</text>
<text x="956" y="134" font-family="Arial" font-size="12" fill="#2B2B2B" font-weight="bold" text-anchor="start">CPF *</text>
<rect x="956" y="140" width="300" height="34" rx="4" fill="#FFFFFF" stroke="#9A9A9A" stroke-width="1.5"/>
<text x="966" y="162" font-family="Arial" font-size="12" fill="#999999" text-anchor="start">000.000.000-00</text>
<text x="224" y="204" font-family="Arial" font-size="12" fill="#2B2B2B" font-weight="bold" text-anchor="start">Data de nascimento</text>
<rect x="224" y="210" width="180" height="34" rx="4" fill="#FFFFFF" stroke="#9A9A9A" stroke-width="1.5"/>
<text x="234" y="232" font-family="Arial" font-size="12" fill="#999999" text-anchor="start">dd/mm/aaaa</text>
<text x="420" y="204" font-family="Arial" font-size="12" fill="#2B2B2B" font-weight="bold" text-anchor="start">Telefone</text>
<rect x="420" y="210" width="180" height="34" rx="4" fill="#FFFFFF" stroke="#9A9A9A" stroke-width="1.5"/>
<text x="430" y="232" font-family="Arial" font-size="12" fill="#999999" text-anchor="start">(00) 00000-0000</text>
<text x="616" y="204" font-family="Arial" font-size="12" fill="#2B2B2B" font-weight="bold" text-anchor="start">Cargo *</text>
<rect x="616" y="210" width="220" height="34" rx="4" fill="#FFFFFF" stroke="#9A9A9A" stroke-width="1.5"/>
<text x="626" y="232" font-family="Arial" font-size="12" fill="#999999" text-anchor="start">Selecione</text>
<text x="820" y="232" font-family="Arial" font-size="12" fill="#666666" text-anchor="start">▾</text>
<text x="852" y="204" font-family="Arial" font-size="12" fill="#2B2B2B" font-weight="bold" text-anchor="start">Setor *</text>
<rect x="852" y="210" width="220" height="34" rx="4" fill="#FFFFFF" stroke="#9A9A9A" stroke-width="1.5"/>
<text x="862" y="232" font-family="Arial" font-size="12" fill="#999999" text-anchor="start">Alvenaria / Estrutura...</text>
<text x="1056" y="232" font-family="Arial" font-size="12" fill="#666666" text-anchor="start">▾</text>
<text x="224" y="274" font-family="Arial" font-size="12" fill="#2B2B2B" font-weight="bold" text-anchor="start">E-mail</text>
<rect x="224" y="280" width="416" height="34" rx="4" fill="#FFFFFF" stroke="#9A9A9A" stroke-width="1.5"/>
<text x="234" y="302" font-family="Arial" font-size="12" fill="#999999" text-anchor="start">email@exemplo.com</text>
<rect x="924" y="278" width="140" height="36" rx="5" fill="#FFFFFF" stroke="#4A4A4A" stroke-width="1.5"/>
<text x="994.0" y="300.5" font-family="Arial" font-size="13" fill="#2B2B2B" text-anchor="middle">Cancelar</text>
<rect x="1080" y="278" width="176" height="36" rx="5" fill="#4A4A4A"/>
<text x="1168.0" y="300.5" font-family="Arial" font-size="13" fill="#FFFFFF" font-weight="bold" text-anchor="middle">Salvar colaborador</text>
<text x="224" y="366" font-family="Arial" font-size="14" fill="#2B2B2B" font-weight="bold" text-anchor="start">Colaboradores cadastrados</text>
<rect x="224" y="380" width="320" height="34" rx="4" fill="#FFFFFF" stroke="#9A9A9A" stroke-width="1.5"/>
<text x="234" y="402" font-family="Arial" font-size="12" fill="#999999" text-anchor="start">Buscar por nome ou matrícula…</text>
<rect x="560" y="380" width="170" height="34" rx="4" fill="#FFFFFF" stroke="#9A9A9A" stroke-width="1.5"/>
<text x="570" y="402" font-family="Arial" font-size="12" fill="#999999" text-anchor="start">Setor: todos</text>
<text x="714" y="402" font-family="Arial" font-size="12" fill="#666666" text-anchor="start">▾</text>
<rect x="1116" y="379" width="140" height="36" rx="5" fill="#4A4A4A"/>
<text x="1186.0" y="401.5" font-family="Arial" font-size="13" fill="#FFFFFF" font-weight="bold" text-anchor="middle">+ Novo</text>
<rect x="224" y="432" width="1032" height="166" rx="4" fill="#FFFFFF" stroke="#9A9A9A" stroke-width="1.5"/>
<rect x="224" y="432" width="1032" height="30" rx="4" fill="#EDEDE9" stroke="#9A9A9A" stroke-width="1.5"/>
<text x="234" y="452" font-family="Arial" font-size="10" fill="#555555" font-weight="bold" text-anchor="start">MATRÍCULA</text>
<text x="344" y="452" font-family="Arial" font-size="10" fill="#555555" font-weight="bold" text-anchor="start">NOME</text>
<text x="594" y="452" font-family="Arial" font-size="10" fill="#555555" font-weight="bold" text-anchor="start">CPF</text>
<text x="754" y="452" font-family="Arial" font-size="10" fill="#555555" font-weight="bold" text-anchor="start">SETOR</text>
<text x="904" y="452" font-family="Arial" font-size="10" fill="#555555" font-weight="bold" text-anchor="start">CARGO</text>
<text x="1054" y="452" font-family="Arial" font-size="10" fill="#555555" font-weight="bold" text-anchor="start">STATUS</text>
<text x="1154" y="452" font-family="Arial" font-size="10" fill="#555555" font-weight="bold" text-anchor="start">AÇÕES</text>
<line x1="224" y1="462" x2="1256" y2="462" stroke="#D9D7D0" stroke-width="1"/>
<text x="234" y="484" font-family="Arial" font-size="12" fill="#2B2B2B" text-anchor="start">001201</text>
<text x="344" y="484" font-family="Arial" font-size="12" fill="#2B2B2B" text-anchor="start">Carlos Andrade</text>
<text x="594" y="484" font-family="Arial" font-size="12" fill="#2B2B2B" text-anchor="start">111.444.777-35</text>
<text x="754" y="484" font-family="Arial" font-size="12" fill="#2B2B2B" text-anchor="start">Estrutura</text>
<text x="904" y="484" font-family="Arial" font-size="12" fill="#2B2B2B" text-anchor="start">Pedreiro</text>
<rect x="1054" y="470" width="50" height="18" rx="9" fill="#FFFFFF" stroke="#9A9A9A" stroke-width="1"/>
<text x="1079.0" y="483" font-family="Arial" font-size="10" fill="#555555" text-anchor="middle">Ativo</text>
<text x="1154" y="484" font-family="Arial" font-size="12" fill="#2B2B2B" text-anchor="start">Editar</text>
<line x1="224" y1="496" x2="1256" y2="496" stroke="#D9D7D0" stroke-width="1"/>
<text x="234" y="518" font-family="Arial" font-size="12" fill="#2B2B2B" text-anchor="start">001202</text>
<text x="344" y="518" font-family="Arial" font-size="12" fill="#2B2B2B" text-anchor="start">José Pereira</text>
<text x="594" y="518" font-family="Arial" font-size="12" fill="#2B2B2B" text-anchor="start">222.555.888-46</text>
<text x="754" y="518" font-family="Arial" font-size="12" fill="#2B2B2B" text-anchor="start">Alvenaria</text>
<text x="904" y="518" font-family="Arial" font-size="12" fill="#2B2B2B" text-anchor="start">Servente</text>
<rect x="1054" y="504" width="50" height="18" rx="9" fill="#FFFFFF" stroke="#9A9A9A" stroke-width="1"/>
<text x="1079.0" y="517" font-family="Arial" font-size="10" fill="#555555" text-anchor="middle">Ativo</text>
<text x="1154" y="518" font-family="Arial" font-size="12" fill="#2B2B2B" text-anchor="start">Editar</text>
<line x1="224" y1="530" x2="1256" y2="530" stroke="#D9D7D0" stroke-width="1"/>
<text x="234" y="552" font-family="Arial" font-size="12" fill="#2B2B2B" text-anchor="start">001203</text>
<text x="344" y="552" font-family="Arial" font-size="12" fill="#2B2B2B" text-anchor="start">Marcos Oliveira</text>
<text x="594" y="552" font-family="Arial" font-size="12" fill="#2B2B2B" text-anchor="start">333.666.999-57</text>
<text x="754" y="552" font-family="Arial" font-size="12" fill="#2B2B2B" text-anchor="start">Elétrica</text>
<text x="904" y="552" font-family="Arial" font-size="12" fill="#2B2B2B" text-anchor="start">Eletricista</text>
<rect x="1054" y="538" width="50" height="18" rx="9" fill="#FFFFFF" stroke="#9A9A9A" stroke-width="1"/>
<text x="1079.0" y="551" font-family="Arial" font-size="10" fill="#555555" text-anchor="middle">Ativo</text>
<text x="1154" y="552" font-family="Arial" font-size="12" fill="#2B2B2B" text-anchor="start">Editar</text>
<line x1="224" y1="564" x2="1256" y2="564" stroke="#D9D7D0" stroke-width="1"/>
<text x="234" y="586" font-family="Arial" font-size="12" fill="#2B2B2B" text-anchor="start">001204</text>
<text x="344" y="586" font-family="Arial" font-size="12" fill="#2B2B2B" text-anchor="start">Fernanda Costa</text>
<text x="594" y="586" font-family="Arial" font-size="12" fill="#2B2B2B" text-anchor="start">444.777.111-68</text>
<text x="754" y="586" font-family="Arial" font-size="12" fill="#2B2B2B" text-anchor="start">Estrutura</text>
<text x="904" y="586" font-family="Arial" font-size="12" fill="#2B2B2B" text-anchor="start">Mestre de obras</text>
<rect x="1054" y="572" width="62" height="18" rx="9" fill="#FFFFFF" stroke="#9A9A9A" stroke-width="1"/>
<text x="1085.0" y="585" font-family="Arial" font-size="10" fill="#555555" text-anchor="middle">Inativo</text>
<text x="1154" y="586" font-family="Arial" font-size="12" fill="#2B2B2B" text-anchor="start">Editar</text>
<text x="224" y="816" font-family="Arial" font-size="11" fill="#888888" font-style="italic" text-anchor="start">Tela 03 — Cadastro de Colaboradores: campos obrigatórios com *, CPF e matrícula únicos, inativação preserva histórico (RN05).</text>
</svg>