<svg xmlns="http://www.w3.org/2000/svg" width="1280" height="832" viewBox="0 0 1280 832">
<rect width="1280" height="832" fill="#F4F3EF"/>
<rect x="0" y="0" width="1280" height="56" rx="0" fill="#EDEDE9"/>
<line x1="0" y1="56" x2="1280" y2="56" stroke="#9A9A9A" stroke-width="2"/>
<circle cx="34" cy="28" r="14" fill="#FFFFFF" stroke="#2B2B2B" stroke-width="2"/>
<text x="34" y="32" font-family="Arial" font-size="9" fill="#2B2B2B" font-weight="bold" text-anchor="middle">EPI</text>
<text x="58" y="33" font-family="Arial" font-size="14" fill="#2B2B2B" font-weight="bold" text-anchor="start">Gestão de EPIs — Construção Civil</text>
<rect x="1064" y="15" width="192" height="26" rx="13" fill="#FFFFFF" stroke="#9A9A9A" stroke-width="1"/>
<text x="1160" y="32" font-family="Arial" font-size="11" fill="#555555" text-anchor="middle">Técnico de Segurança ▾</text>
<rect x="0" y="56" width="200" height="776" rx="0" fill="#EFEFEA"/>
<line x1="200" y1="56" x2="200" y2="832" stroke="#9A9A9A" stroke-width="1.5"/>
<text x="20" y="105" font-family="Arial" font-size="13" fill="#2B2B2B" text-anchor="start">Dashboard</text>
<text x="20" y="149" font-family="Arial" font-size="13" fill="#2B2B2B" text-anchor="start">Colaboradores</text>
<text x="20" y="193" font-family="Arial" font-size="13" fill="#2B2B2B" text-anchor="start">EPIs</text>
<rect x="0" y="212" width="200" height="40" rx="0" fill="#E0DFD8"/>
<rect x="0" y="212" width="4" height="40" rx="0" fill="#2B2B2B"/>
<text x="20" y="237" font-family="Arial" font-size="13" fill="#2B2B2B" font-weight="bold" text-anchor="start">Empréstimos</text>
<text x="20" y="281" font-family="Arial" font-size="13" fill="#2B2B2B" text-anchor="start">Relatórios</text>
<text x="20" y="325" font-family="Arial" font-size="13" fill="#2B2B2B" text-anchor="start">Usuários</text>
<text x="224" y="96" font-family="Arial" font-size="18" fill="#2B2B2B" font-weight="bold" text-anchor="start">Registrar empréstimo de EPIs</text>
<line x1="224" y1="108" x2="1256" y2="108" stroke="#D9D7D0" stroke-width="1"/>
<text x="224" y="134" font-family="Arial" font-size="12" fill="#2B2B2B" font-weight="bold" text-anchor="start">Colaborador *</text>
<rect x="224" y="140" width="520" height="34" rx="4" fill="#FFFFFF" stroke="#9A9A9A" stroke-width="1.5"/>
<text x="234" y="162" font-family="Arial" font-size="12" fill="#999999" text-anchor="start">Buscar por nome ou matrícula…</text>
<text x="728" y="162" font-family="Arial" font-size="12" fill="#666666" text-anchor="start">▾</text>
<text x="760" y="134" font-family="Arial" font-size="12" fill="#2B2B2B" font-weight="bold" text-anchor="start">Data prevista de devolução *</text>
<rect x="760" y="140" width="220" height="34" rx="4" fill="#FFFFFF" stroke="#9A9A9A" stroke-width="1.5"/>
<text x="770" y="162" font-family="Arial" font-size="12" fill="#999999" text-anchor="start">dd/mm/aaaa</text>
<text x="996" y="134" font-family="Arial" font-size="12" fill="#2B2B2B" font-weight="bold" text-anchor="start">Observação</text>
<rect x="996" y="140" width="260" height="34" rx="4" fill="#FFFFFF" stroke="#9A9A9A" stroke-width="1.5"/>
<text x="1006" y="162" font-family="Arial" font-size="12" fill="#999999" text-anchor="start">Opcional</text>
<text x="224" y="216" font-family="Arial" font-size="14" fill="#2B2B2B" font-weight="bold" text-anchor="start">Itens do empréstimo</text>
<text x="224" y="236" font-family="Arial" font-size="11" fill="#888888" text-anchor="start">O sistema valida o estoque disponível e a validade do CA automaticamente.</text>
<text x="224" y="262" font-family="Arial" font-size="12" fill="#2B2B2B" font-weight="bold" text-anchor="start">EPI</text>
<rect x="224" y="268" width="560" height="34" rx="4" fill="#FFFFFF" stroke="#9A9A9A" stroke-width="1.5"/>
<text x="234" y="290" font-family="Arial" font-size="12" fill="#999999" text-anchor="start">Selecionar EPI disponível | estoque: __</text>
<text x="768" y="290" font-family="Arial" font-size="12" fill="#666666" text-anchor="start">▾</text>
<text x="800" y="262" font-family="Arial" font-size="12" fill="#2B2B2B" font-weight="bold" text-anchor="start">Quantidade</text>
<rect x="800" y="268" width="120" height="34" rx="4" fill="#FFFFFF" stroke="#9A9A9A" stroke-width="1.5"/>
<text x="810" y="290" font-family="Arial" font-size="12" fill="#999999" text-anchor="start">1</text>
<rect x="1096" y="267" width="160" height="36" rx="5" fill="#FFFFFF" stroke="#4A4A4A" stroke-width="1.5"/>
<text x="1176.0" y="289.5" font-family="Arial" font-size="13" fill="#2B2B2B" text-anchor="middle">+ Adicionar item</text>
<rect x="224" y="340" width="1032" height="98" rx="4" fill="#FFFFFF" stroke="#9A9A9A" stroke-width="1.5"/>
<rect x="224" y="340" width="1032" height="30" rx="4" fill="#EDEDE9" stroke="#9A9A9A" stroke-width="1.5"/>
<text x="234" y="360" font-family="Arial" font-size="10" fill="#555555" font-weight="bold" text-anchor="start">EPI</text>
<text x="654" y="360" font-family="Arial" font-size="10" fill="#555555" font-weight="bold" text-anchor="start">CA</text>
<text x="794" y="360" font-family="Arial" font-size="10" fill="#555555" font-weight="bold" text-anchor="start">QTDE.</text>
<text x="904" y="360" font-family="Arial" font-size="10" fill="#555555" font-weight="bold" text-anchor="start">DISPONÍVEL</text>
<text x="1054" y="360" font-family="Arial" font-size="10" fill="#555555" font-weight="bold" text-anchor="start"></text>
<line x1="224" y1="370" x2="1256" y2="370" stroke="#D9D7D0" stroke-width="1"/>
<text x="234" y="392" font-family="Arial" font-size="12" fill="#2B2B2B" text-anchor="start">Capacete de segurança com jugular</text>
<text x="654" y="392" font-family="Arial" font-size="12" fill="#2B2B2B" text-anchor="start">CA 12345</text>
<text x="794" y="392" font-family="Arial" font-size="12" fill="#2B2B2B" text-anchor="start">1</text>
<text x="904" y="392" font-family="Arial" font-size="12" fill="#2B2B2B" text-anchor="start">90</text>
<text x="1054" y="392" font-family="Arial" font-size="12" fill="#2B2B2B" text-anchor="start">Remover</text>
<line x1="224" y1="404" x2="1256" y2="404" stroke="#D9D7D0" stroke-width="1"/>
<text x="234" y="426" font-family="Arial" font-size="12" fill="#2B2B2B" text-anchor="start">Botina de segurança com biqueira (42)</text>
<text x="654" y="426" font-family="Arial" font-size="12" fill="#2B2B2B" text-anchor="start">CA 23456</text>
<text x="794" y="426" font-family="Arial" font-size="12" fill="#2B2B2B" text-anchor="start">1</text>
<text x="904" y="426" font-family="Arial" font-size="12" fill="#2B2B2B" text-anchor="start">60</text>
<text x="1054" y="426" font-family="Arial" font-size="12" fill="#2B2B2B" text-anchor="start">Remover</text>
<rect x="784" y="490" width="140" height="36" rx="5" fill="#FFFFFF" stroke="#4A4A4A" stroke-width="1.5"/>
<text x="854.0" y="512.5" font-family="Arial" font-size="13" fill="#2B2B2B" text-anchor="middle">Cancelar</text>
<rect x="940" y="490" width="316" height="36" rx="5" fill="#4A4A4A"/>
<text x="1098.0" y="512.5" font-family="Arial" font-size="13" fill="#FFFFFF" font-weight="bold" text-anchor="middle">Confirmar empréstimo e emitir ficha</text>
<text x="224" y="816" font-family="Arial" font-size="11" fill="#888888" font-style="italic" text-anchor="start">Tela 05 — Empréstimo: valida estoque e CA antes de confirmar; ao salvar, baixa o estoque e emite a ficha de entrega (NR-6).</text>
</svg>